<svg version="1.1" xmlns="http://www.w3.org/2000/svg" xmlns:xlink="http://www.w3.org/1999/xlink" width="24" height="24" viewBox="0,0,256,256"><g fill="#ffffff" fill-rule="nonzero" stroke="none" stroke-width="1" stroke-linecap="butt" stroke-linejoin="miter" stroke-miterlimit="10" stroke-dasharray="" stroke-dashoffset="0" font-family="none" font-weight="none" font-size="none" text-anchor="none" style="mix-blend-mode: normal"><g transform="translate(-1.47222,257.33333) scale(0.26667,0.26667)"><path d="M200,-200h56l345,-345l-56,-56l-345,345zM772,-603l-170,-168l56,-56c15.33333,-15.33333 34.16667,-23 56.5,-23c22.33333,0 41.16667,7.66667 56.5,23l56,56c15.33333,15.33333 23.33333,33.83333 24,55.5c0.66667,21.66667 -6.66667,40.16667 -22,55.5zM714,-544l-424,424h-170v-170l424,-424zM573,-573l-28,-28l56,56z"></path></g></g></svg>