<svg version="1.1" xmlns="http://www.w3.org/2000/svg" xmlns:xlink="http://www.w3.org/1999/xlink" width="24" height="24" viewBox="0,0,256,256"><g fill="#ffffff" fill-rule="nonzero" stroke="none" stroke-width="1" stroke-linecap="butt" stroke-linejoin="miter" stroke-miterlimit="10" stroke-dasharray="" stroke-dashoffset="0" font-family="none" font-weight="none" font-size="none" text-anchor="none" style="mix-blend-mode: normal"><g transform="translate(0,258.93333) scale(0.26667,0.26667)"><path d="M440,-122c-80.66667,-10 -147.5,-45.16667 -200.5,-105.5c-53,-60.33333 -79.5,-131.16667 -79.5,-212.5c0,-44 8.66667,-86.16667 26,-126.5c17.33333,-40.33333 42,-75.5 74,-105.5l57,57c-25.33333,22.66667 -44.5,49 -57.5,79c-13,30 -19.5,62 -19.5,96c0,58.66667 18.66667,110.5 56,155.5c37.33333,45 85.33333,72.5 144,82.5zM520,-122v-80c58,-10.66667 105.83333,-38.33333 143.5,-83c37.66667,-44.66667 56.5,-96.33333 56.5,-155c0,-66.66667 -23.33333,-123.33333 -70,-170c-46.66667,-46.66667 -103.33333,-70 -170,-70h-3l44,44l-56,56l-140,-140l140,-140l56,56l-44,44h3c89.33333,0 165,31 227,93c62,62 93,137.66667 93,227c0,80.66667 -26.5,151.16667 -79.5,211.5c-53,60.33333 -119.83333,95.83333 -200.5,106.5z"></path></g></g></svg>